<svg width="289" height="46" viewBox="0 0 289 46" fill="none" xmlns="http://www.w3.org/2000/svg">
<path d="M0.216 45V1.6H28.24V7.986H8.152V20.138H24.396V26.4H8.152V45H0.216ZM38.4564 9.474C37.0098 9.474 35.8111 9.04 34.8604 8.172C33.9511 7.304 33.4964 6.20867 33.4964 4.886C33.4964 3.56333 33.9511 2.48866 34.8604 1.662C35.8111 0.793998 37.0098 0.359998 38.4564 0.359998C39.9031 0.359998 41.0811 0.793998 41.9904 1.662C42.9411 2.48866 43.4164 3.56333 43.4164 4.886C43.4164 6.20867 42.9411 7.304 41.9904 8.172C41.0811 9.04 39.9031 9.474 38.4564 9.474ZM34.4884 45V14.248H42.4244V45H34.4884ZM50.7077 45V14.248H57.7137L58.3337 19.456C59.2844 17.6373 60.6484 16.1907 62.4257 15.116C64.2444 14.0413 66.3731 13.504 68.8117 13.504C72.6144 13.504 75.5697 14.7027 77.6777 17.1C79.7857 19.4973 80.8397 23.0107 80.8397 27.64V45H72.9037V28.384C72.9037 25.7387 72.3664 23.7133 71.2917 22.308C70.2171 20.9027 68.5431 20.2 66.2697 20.2C64.0377 20.2 62.1984 20.9853 60.7517 22.556C59.3464 24.1267 58.6437 26.3173 58.6437 29.128V45H50.7077ZM88.4284 45V14.248H95.4344L96.1164 18.402C97.1084 16.914 98.4104 15.736 100.022 14.868C101.676 13.9587 103.577 13.504 105.726 13.504C110.48 13.504 113.848 15.3433 115.832 19.022C116.948 17.3273 118.436 15.984 120.296 14.992C122.198 14 124.264 13.504 126.496 13.504C130.506 13.504 133.585 14.7027 135.734 17.1C137.884 19.4973 138.958 23.0107 138.958 27.64V45H131.022V28.384C131.022 25.7387 130.506 23.7133 129.472 22.308C128.48 20.9027 126.93 20.2 124.822 20.2C122.673 20.2 120.937 20.9853 119.614 22.556C118.333 24.1267 117.692 26.3173 117.692 29.128V45H109.756V28.384C109.756 25.7387 109.24 23.7133 108.206 22.308C107.173 20.9027 105.582 20.2 103.432 20.2C101.324 20.2 99.6091 20.9853 98.2864 22.556C97.0051 24.1267 96.3644 26.3173 96.3644 29.128V45H88.4284ZM161.249 45.744C158.273 45.744 155.586 45.062 153.189 43.698C150.833 42.334 148.952 40.4533 147.547 38.056C146.183 35.6173 145.501 32.8067 145.501 29.624C145.501 26.4413 146.204 23.6513 147.609 21.254C149.014 18.8153 150.895 16.914 153.251 15.55C155.648 14.186 158.335 13.504 161.311 13.504C164.246 13.504 166.891 14.186 169.247 15.55C171.644 16.914 173.525 18.8153 174.889 21.254C176.294 23.6513 176.997 26.4413 176.997 29.624C176.997 32.8067 176.294 35.6173 174.889 38.056C173.525 40.4533 171.644 42.334 169.247 43.698C166.85 45.062 164.184 45.744 161.249 45.744ZM161.249 38.862C163.316 38.862 165.114 38.0973 166.643 36.568C168.172 34.9973 168.937 32.6827 168.937 29.624C168.937 26.5653 168.172 24.2713 166.643 22.742C165.114 21.1713 163.336 20.386 161.311 20.386C159.203 20.386 157.384 21.1713 155.855 22.742C154.367 24.2713 153.623 26.5653 153.623 29.624C153.623 32.6827 154.367 34.9973 155.855 36.568C157.384 38.0973 159.182 38.862 161.249 38.862ZM198.229 45.744C195.335 45.744 192.752 45.0413 190.479 43.636C188.205 42.2307 186.407 40.3087 185.085 37.87C183.762 35.4313 183.101 32.662 183.101 29.562C183.101 26.462 183.762 23.7133 185.085 21.316C186.407 18.8773 188.205 16.976 190.479 15.612C192.752 14.2067 195.335 13.504 198.229 13.504C200.543 13.504 202.569 13.938 204.305 14.806C206.041 15.674 207.446 16.8933 208.521 18.464V0.359998H216.457V45H209.389L208.521 40.598C207.529 41.962 206.206 43.1607 204.553 44.194C202.941 45.2273 200.833 45.744 198.229 45.744ZM199.903 38.8C202.465 38.8 204.553 37.9527 206.165 36.258C207.818 34.522 208.645 32.3107 208.645 29.624C208.645 26.9373 207.818 24.7467 206.165 23.052C204.553 21.316 202.465 20.448 199.903 20.448C197.381 20.448 195.294 21.2953 193.641 22.99C191.987 24.6847 191.161 26.8753 191.161 29.562C191.161 32.2487 191.987 34.46 193.641 36.196C195.294 37.932 197.381 38.8 199.903 38.8ZM227.948 45.434C226.501 45.434 225.302 44.9793 224.352 44.07C223.442 43.1607 222.988 42.0653 222.988 40.784C222.988 39.4613 223.442 38.3453 224.352 37.436C225.302 36.5267 226.501 36.072 227.948 36.072C229.394 36.072 230.572 36.5267 231.482 37.436C232.432 38.3453 232.908 39.4613 232.908 40.784C232.908 42.0653 232.432 43.1607 231.482 44.07C230.572 44.9793 229.394 45.434 227.948 45.434ZM243.71 9.474C242.264 9.474 241.065 9.04 240.114 8.172C239.205 7.304 238.75 6.20867 238.75 4.886C238.75 3.56333 239.205 2.48866 240.114 1.662C241.065 0.793998 242.264 0.359998 243.71 0.359998C245.157 0.359998 246.335 0.793998 247.244 1.662C248.195 2.48866 248.67 3.56333 248.67 4.886C248.67 6.20867 248.195 7.304 247.244 8.172C246.335 9.04 245.157 9.474 243.71 9.474ZM239.742 45V14.248H247.678V45H239.742ZM270.098 45.744C267.204 45.744 264.621 45.0413 262.348 43.636C260.074 42.2307 258.276 40.3087 256.954 37.87C255.631 35.4313 254.97 32.662 254.97 29.562C254.97 26.462 255.631 23.7133 256.954 21.316C258.276 18.8773 260.074 16.976 262.348 15.612C264.621 14.2067 267.204 13.504 270.098 13.504C272.412 13.504 274.438 13.938 276.174 14.806C277.91 15.674 279.315 16.8933 280.39 18.464V0.359998H288.326V45H281.258L280.39 40.598C279.398 41.962 278.075 43.1607 276.422 44.194C274.81 45.2273 272.702 45.744 270.098 45.744ZM271.772 38.8C274.334 38.8 276.422 37.9527 278.034 36.258C279.687 34.522 280.514 32.3107 280.514 29.624C280.514 26.9373 279.687 24.7467 278.034 23.052C276.422 21.316 274.334 20.448 271.772 20.448C269.25 20.448 267.163 21.2953 265.51 22.99C263.856 24.6847 263.03 26.8753 263.03 29.562C263.03 32.2487 263.856 34.46 265.51 36.196C267.163 37.932 269.25 38.8 271.772 38.8Z" fill="#3838B7"/>
</svg>
