<svg width="24" height="24" viewBox="0 0 24 24" fill="none" xmlns="http://www.w3.org/2000/svg">
<g clip-path="url(#clip0_3167_10227)">
<path d="M20.6668 5.33325H15.3335V6.66659H20.6668V20.6666H15.3335V21.9999H22.0002V6.66659C22.0002 6.31296 21.8597 5.97383 21.6096 5.72378C21.3596 5.47373 21.0205 5.33325 20.6668 5.33325Z" fill="#444444"/>
<path d="M13.2532 2H4.07984C3.705 2 3.34551 2.1489 3.08046 2.41396C2.81541 2.67901 2.6665 3.03849 2.6665 3.41333V22H14.6665V3.41333C14.6665 3.03849 14.5176 2.67901 14.2525 2.41396C13.9875 2.1489 13.628 2 13.2532 2ZM13.3332 20.6667H11.3332V18.6667H5.99984V20.6667H3.99984V3.41333C3.99984 3.40283 4.00191 3.39242 4.00593 3.38272C4.00995 3.37301 4.01584 3.36419 4.02327 3.35676C4.0307 3.34934 4.03952 3.34344 4.04922 3.33942C4.05893 3.3354 4.06933 3.33333 4.07984 3.33333H13.2532C13.2637 3.33333 13.2741 3.3354 13.2838 3.33942C13.2935 3.34344 13.3023 3.34934 13.3097 3.35676C13.3172 3.36419 13.3231 3.37301 13.3271 3.38272C13.3311 3.39242 13.3332 3.40283 13.3332 3.41333V20.6667Z" fill="#444444"/>
<path d="M5.3335 5.33325H6.66683V6.66659H5.3335V5.33325Z" fill="#444444"/>
<path d="M8 5.33325H9.33333V6.66659H8V5.33325Z" fill="#444444"/>
<path d="M10.6665 5.33325H11.9998V6.66659H10.6665V5.33325Z" fill="#444444"/>
<path d="M5.3335 8.66675H6.66683V10.0001H5.3335V8.66675Z" fill="#444444"/>
<path d="M8 8.66675H9.33333V10.0001H8V8.66675Z" fill="#444444"/>
<path d="M10.6665 8.66675H11.9998V10.0001H10.6665V8.66675Z" fill="#444444"/>
<path d="M5.3335 12H6.66683V13.3333H5.3335V12Z" fill="#444444"/>
<path d="M8 12H9.33333V13.3333H8V12Z" fill="#444444"/>
<path d="M10.6665 12H11.9998V13.3333H10.6665V12Z" fill="#444444"/>
<path d="M5.3335 15.3333H6.66683V16.6666H5.3335V15.3333Z" fill="#444444"/>
<path d="M8 15.3333H9.33333V16.6666H8V15.3333Z" fill="#444444"/>
<path d="M10.6665 15.3333H11.9998V16.6666H10.6665V15.3333Z" fill="#444444"/>
<path d="M15.3335 8.66675H16.6668V10.0001H15.3335V8.66675Z" fill="#444444"/>
<path d="M18 8.66675H19.3333V10.0001H18V8.66675Z" fill="#444444"/>
<path d="M15.3335 12H16.6668V13.3333H15.3335V12Z" fill="#444444"/>
<path d="M18 12H19.3333V13.3333H18V12Z" fill="#444444"/>
<path d="M15.3335 15.3333H16.6668V16.6666H15.3335V15.3333Z" fill="#444444"/>
<path d="M18 15.3333H19.3333V16.6666H18V15.3333Z" fill="#444444"/>
</g>
<defs>
<clipPath id="clip0_3167_10227">
<rect width="24" height="24" fill="white"/>
</clipPath>
</defs>
</svg>
